# xmcd
#
# Track frame offsets:
#	150
#	24127
#	43875
#	81252
#	112007
#	136322
#	187035
#	205677
#	244822
#	262935
#
# Disc length: 3796 seconds
#
# Revision: 0
# Processed by: cddbd v1.5.1PL0 Copyright (c) Steve Scherf et al.
# Submitted via: dBpowerAMP V4.0
#
DISCID=850ed20a
DTITLE=Beat Merchants - Beat Merchants
DYEAR=1993
DGENRE=
TTITLE0=Only Man
TTITLE1=Life's Too Short
TTITLE2=Simple Fickle Fool
TTITLE3=Muses
TTITLE4=Where To Dance
TTITLE5=If It's Better Or Not
TTITLE6=Gotta Believe
TTITLE7=Who Ya Gonna Love
TTITLE8=Tangle
TTITLE9=Love Gone Blue
EXTD=
EXTT0=
EXTT1=
EXTT2=
EXTT3=
EXTT4=
EXTT5=
EXTT6=
EXTT7=
EXTT8=
EXTT9=
PLAYORDER=
